<svg width="66" height="66" viewBox="0 0 66 66" fill="none" xmlns="http://www.w3.org/2000/svg">
<g filter="url(#filter0_d_46_2061)">
<rect x="12" y="8" width="42" height="42" rx="21" fill="url(#paint0_linear_46_2061)" shape-rendering="crispEdges"/>
<path d="M32.3499 35.6747L32.3499 35.6747L40.3621 27.6625C39.2717 27.2086 37.9801 26.4631 36.7586 25.2417C35.537 24.02 34.7914 22.7282 34.3376 21.6376L26.3252 29.65L26.3252 29.65C25.7 30.2752 25.3873 30.5879 25.1185 30.9326C24.8013 31.3392 24.5294 31.7792 24.3075 32.2447C24.1195 32.6393 23.9797 33.0588 23.7 33.8976L22.2255 38.3213C22.0879 38.7341 22.1953 39.1892 22.503 39.4969C22.8107 39.8046 23.2658 39.912 23.6787 39.7744L28.1023 38.2999C28.9411 38.0203 29.3606 37.8804 29.7552 37.6924C30.2208 37.4705 30.6607 37.1986 31.0673 36.8814C31.412 36.6126 31.7247 36.2999 32.3499 35.6747Z" fill="white"/>
<path d="M42.5854 25.4392C44.2491 23.7755 44.2491 21.0782 42.5854 19.4145C40.9217 17.7508 38.2244 17.7508 36.5607 19.4145L35.5997 20.3755C35.6129 20.4152 35.6265 20.4555 35.6407 20.4963C35.9929 21.5115 36.6575 22.8424 37.9077 24.0926C39.1579 25.3428 40.4887 26.0074 41.504 26.3596C41.5446 26.3737 41.5847 26.3873 41.6243 26.4004L42.5854 25.4392Z" fill="white"/>
</g>
<defs>
<filter id="filter0_d_46_2061" x="0" y="0" width="66" height="66" filterUnits="userSpaceOnUse" color-interpolation-filters="sRGB">
<feFlood flood-opacity="0" result="BackgroundImageFix"/>
<feColorMatrix in="SourceAlpha" type="matrix" values="0 0 0 0 0 0 0 0 0 0 0 0 0 0 0 0 0 0 127 0" result="hardAlpha"/>
<feOffset dy="4"/>
<feGaussianBlur stdDeviation="6"/>
<feComposite in2="hardAlpha" operator="out"/>
<feColorMatrix type="matrix" values="0 0 0 0 0.0509804 0 0 0 0 0.0392157 0 0 0 0 0.172549 0 0 0 0.06 0"/>
<feBlend mode="normal" in2="BackgroundImageFix" result="effect1_dropShadow_46_2061"/>
<feBlend mode="normal" in="SourceGraphic" in2="effect1_dropShadow_46_2061" result="shape"/>
</filter>
<linearGradient id="paint0_linear_46_2061" x1="12" y1="8" x2="52.7604" y2="37.9865" gradientUnits="userSpaceOnUse">
<stop stop-color="#1565C0"/>
<stop offset="1" stop-color="#0F4888"/>
</linearGradient>
</defs>
</svg>
