<svg width="25" height="24" viewBox="0 0 25 24" fill="none" xmlns="http://www.w3.org/2000/svg">
<path d="M9.825 12C9.825 12.5523 9.37729 13 8.825 13C8.27272 13 7.825 12.5523 7.825 12C7.825 11.4477 8.27272 11 8.825 11C9.37729 11 9.825 11.4477 9.825 12Z" fill="#9A9BB1"/>
<path d="M13.825 12C13.825 12.5523 13.3773 13 12.825 13C12.2727 13 11.825 12.5523 11.825 12C11.825 11.4477 12.2727 11 12.825 11C13.3773 11 13.825 11.4477 13.825 12Z" fill="#9A9BB1"/>
<path d="M17.825 12C17.825 12.5523 17.3773 13 16.825 13C16.2727 13 15.825 12.5523 15.825 12C15.825 11.4477 16.2727 11 16.825 11C17.3773 11 17.825 11.4477 17.825 12Z" fill="#9A9BB1"/>
<path fill-rule="evenodd" clip-rule="evenodd" d="M23.575 12C23.575 6.06294 18.7621 1.25 12.825 1.25C6.88794 1.25 2.075 6.06294 2.075 12C2.075 13.7183 2.47871 15.3445 3.19713 16.7869C3.30433 17.0021 3.32708 17.2219 3.27761 17.4068L2.682 19.6328C2.27427 21.1566 3.66837 22.5507 5.1922 22.143L7.41824 21.5474C7.60314 21.4979 7.82291 21.5207 8.03815 21.6279C9.48053 22.3463 11.1067 22.75 12.825 22.75C18.7621 22.75 23.575 17.9371 23.575 12ZM12.825 2.75C17.9336 2.75 22.075 6.89137 22.075 12C22.075 17.1086 17.9336 21.25 12.825 21.25C11.3439 21.25 9.94621 20.9025 8.70691 20.2852C8.20951 20.0375 7.61473 19.9421 7.03053 20.0984L4.80449 20.694C4.39566 20.8034 4.02164 20.4293 4.13103 20.0205L4.72663 17.7945C4.88294 17.2103 4.78754 16.6155 4.5398 16.1181C3.92253 14.8788 3.575 13.4811 3.575 12C3.575 6.89137 7.71637 2.75 12.825 2.75Z" fill="#9A9BB1"/>
</svg>
