<svg width="42" height="42" viewBox="0 0 42 42" fill="none" xmlns="http://www.w3.org/2000/svg">
<rect width="42" height="42" rx="21" fill="white" fill-opacity="0.1"/>
<path fill-rule="evenodd" clip-rule="evenodd" d="M14.2104 10.2131C15.5291 8.90184 17.7005 9.13525 18.8048 10.6103L20.1709 12.4351C21.0694 13.6353 20.9901 15.3127 19.9235 16.3732L19.6649 16.6304C19.6536 16.6632 19.6262 16.7664 19.6566 16.9624C19.7251 17.4039 20.0937 18.3403 21.6413 19.8791C23.1883 21.4173 24.1314 21.7856 24.5791 21.8542C24.782 21.8854 24.8881 21.8564 24.921 21.8449L25.363 21.4054C26.3111 20.4627 27.768 20.2864 28.9419 20.9246L31.0117 22.0497C32.7839 23.0131 33.2317 25.4222 31.7797 26.8659L30.2408 28.3961C29.7559 28.8782 29.1038 29.2803 28.3081 29.3545C26.3483 29.5371 21.7785 29.304 16.9771 24.5298C12.4944 20.0725 11.6341 16.1855 11.5253 14.2704L12.3365 14.2243L11.5253 14.2704C11.4702 13.302 11.9279 12.4827 12.51 11.9039L14.2104 10.2131ZM17.5039 11.5842C16.9551 10.851 15.9321 10.7927 15.3561 11.3654L13.6557 13.0562C13.2983 13.4116 13.1263 13.8032 13.1477 14.1782C13.2341 15.6998 13.9289 19.2073 18.1229 23.3775C22.5228 27.7524 26.5865 27.8829 28.1572 27.7365C28.4781 27.7066 28.7973 27.5398 29.095 27.2438L30.6339 25.7136C31.2595 25.0916 31.1215 23.959 30.2356 23.4774L28.1658 22.3523C27.5943 22.0416 26.9247 22.1441 26.5087 22.5577L26.0153 23.0483L25.4424 22.4722C26.0153 23.0483 26.0146 23.0491 26.0138 23.0499L26.0122 23.0514L26.0089 23.0547L26.0019 23.0614L25.986 23.0762C25.9746 23.0866 25.9616 23.098 25.9468 23.1102C25.9174 23.1345 25.8812 23.1621 25.838 23.1911C25.7512 23.2492 25.6367 23.3124 25.4928 23.366C25.1994 23.4753 24.8124 23.534 24.3327 23.4605C23.3937 23.3164 22.1497 22.6762 20.4955 21.0314C18.8418 19.3871 18.1962 18.1489 18.0508 17.2115C17.9764 16.7322 18.0357 16.3451 18.1464 16.0515C18.2006 15.9076 18.2645 15.7931 18.3231 15.7066C18.3524 15.6634 18.3802 15.6273 18.4048 15.598C18.4171 15.5834 18.4285 15.5704 18.439 15.5591L18.4539 15.5433L18.4607 15.5363L18.4639 15.533L18.4655 15.5314C18.4663 15.5306 18.467 15.5299 19.0399 16.106L18.467 15.5299L18.7778 15.2209C19.2421 14.7592 19.3071 13.9928 18.87 13.4089L17.5039 11.5842Z" fill="#2C2D3A"/>
</svg>
