<svg width="25" height="24" viewBox="0 0 25 24" fill="none" xmlns="http://www.w3.org/2000/svg">
<path fill-rule="evenodd" clip-rule="evenodd" d="M8.77539 9C8.77539 6.92893 10.4543 5.25 12.5254 5.25C14.5965 5.25 16.2754 6.92893 16.2754 9C16.2754 11.0711 14.5965 12.75 12.5254 12.75C10.4543 12.75 8.77539 11.0711 8.77539 9ZM12.5254 6.75C11.2828 6.75 10.2754 7.75736 10.2754 9C10.2754 10.2426 11.2828 11.25 12.5254 11.25C13.768 11.25 14.7754 10.2426 14.7754 9C14.7754 7.75736 13.768 6.75 12.5254 6.75Z" fill="#9A9BB1"/>
<path fill-rule="evenodd" clip-rule="evenodd" d="M1.77539 12C1.77539 6.06294 6.58833 1.25 12.5254 1.25C18.4625 1.25 23.2754 6.06294 23.2754 12C23.2754 17.9371 18.4625 22.75 12.5254 22.75C6.58833 22.75 1.77539 17.9371 1.77539 12ZM12.5254 2.75C7.41676 2.75 3.27539 6.89137 3.27539 12C3.27539 14.5456 4.30366 16.851 5.96749 18.5235C6.14789 17.5504 6.50233 16.6329 7.21376 15.8951C8.27791 14.7915 9.97955 14.25 12.5253 14.25C15.0711 14.25 16.7728 14.7915 17.8369 15.8951C18.5484 16.6329 18.9028 17.5505 19.0832 18.5236C20.7471 16.8511 21.7754 14.5456 21.7754 12C21.7754 6.89137 17.634 2.75 12.5254 2.75ZM17.7191 19.6554C17.6172 18.4435 17.354 17.5553 16.7571 16.9363C16.1077 16.2628 14.9043 15.75 12.5253 15.75C10.1464 15.75 8.943 16.2628 8.29354 16.9363C7.69666 17.5553 7.4335 18.4434 7.33162 19.6553C8.81223 20.6618 10.6001 21.25 12.5254 21.25C14.4506 21.25 16.2385 20.6618 17.7191 19.6554Z" fill="#9A9BB1"/>
</svg>
