<svg width="77" height="102" viewBox="0 0 77 102" fill="none" xmlns="http://www.w3.org/2000/svg">
<path d="M72.1488 91.0784C62.5783 97.6526 50.9885 101.5 38.5002 101.5C26.0116 101.5 14.4216 97.6524 4.85101 91.078C0.624023 88.1743 -1.18237 82.6431 1.2753 78.1422C6.37008 68.8116 16.8681 63 38.4999 63C60.1319 63 70.63 68.8118 75.7247 78.1426C78.1822 82.6436 76.3758 88.1748 72.1488 91.0784Z" fill="white"/>
<path d="M38.5003 42C50.0983 42 59.5003 32.598 59.5003 21C59.5003 9.40202 50.0983 0 38.5003 0C26.9023 0 17.5003 9.40202 17.5003 21C17.5003 32.598 26.9023 42 38.5003 42Z" fill="white"/>
</svg>
